# xmcd
#
# Track frame offsets:
#	150
#	11695
#	23962
#	35055
#	44192
#	55680
#	66235
#	76032
#	87245
#	100012
#	113080
#	126052
#	135602
#	145332
#	161165
#	174415
#	183420
#	197882
#	210482
#	223805
#	238210
#	252942
#	265835
#	275467
#	288700
#
# Disc length: 3978 seconds
#
# Revision: 8
# Processed by: cddbd v1.5.2PL0 Copyright (c) Steve Scherf et al.
# Submitted via: EZCDAudioConverter 2.1.7.1
#
DISCID=7b0f8819
DTITLE=Les Baxter - The Colors Of Brazil/African Blue
DYEAR=1991
DGENRE=
TTITLE0=A Felicidade
TTITLE1=Canta De Ossanha
TTITLE2=Balan Samba
TTITLE3=Day Of The Roses
TTITLE4=A Man And A Woman
TTITLE5=Who Will Buy?
TTITLE6=Somewhere In The Hills
TTITLE7=Goin' Out Of My Head
TTITLE8=Tristeza
TTITLE9=Berimbau
TTITLE10=Laia Ladaia
TTITLE11=A Banda
TTITLE12=Born Free
TTITLE13=Yellow Sun
TTITLE14=Flame Tree
TTITLE15=Zebra
TTITLE16=Dark River
TTITLE17=Topaz
TTITLE18=Tree Of Life
TTITLE19=Girl From Uganda
TTITLE20=Magenta Mountain
TTITLE21=Johannesburg Blues
TTITLE22=Jalaba
TTITLE23=Azure Sands
TTITLE24=Kalahari
EXTD=
EXTT0=
EXTT1=
EXTT2=
EXTT3=
EXTT4=
EXTT5=
EXTT6=
EXTT7=
EXTT8=
EXTT9=
EXTT10=
EXTT11=
EXTT12=
EXTT13=
EXTT14=
EXTT15=
EXTT16=
EXTT17=
EXTT18=
EXTT19=
EXTT20=
EXTT21=
EXTT22=
EXTT23=
EXTT24=
PLAYORDER=
